<svg xmlns="http://www.w3.org/2000/svg" viewBox="0 0 64 64">
  <defs>
    <linearGradient id="bg" x1="0" y1="0" x2="1" y2="1">
      <stop offset="0%" stop-color="#8B5C2A"/>
      <stop offset="100%" stop-color="#6B4423"/>
    </linearGradient>
    <linearGradient id="light" x1="0" y1="0" x2="0" y2="1">
      <stop offset="0%" stop-color="#F3E2C7"/>
      <stop offset="100%" stop-color="#D4B896"/>
    </linearGradient>
    <linearGradient id="dark" x1="0" y1="0" x2="0" y2="1">
      <stop offset="0%" stop-color="#4A2810"/>
      <stop offset="100%" stop-color="#2E1A0A"/>
    </linearGradient>
  </defs>
  <rect x="4" y="4" width="56" height="56" rx="8" fill="url(#bg)"/>
  <rect x="8" y="8" width="12" height="12" fill="url(#light)"/>
  <rect x="20" y="8" width="12" height="12" fill="url(#dark)"/>
  <rect x="32" y="8" width="12" height="12" fill="url(#light)"/>
  <rect x="44" y="8" width="12" height="12" fill="url(#dark)"/>
  <rect x="8" y="20" width="12" height="12" fill="url(#dark)"/>
  <rect x="20" y="20" width="12" height="12" fill="url(#light)"/>
  <rect x="32" y="20" width="12" height="12" fill="url(#dark)"/>
  <rect x="44" y="20" width="12" height="12" fill="url(#light)"/>
  <rect x="8" y="32" width="12" height="12" fill="url(#light)"/>
  <rect x="20" y="32" width="12" height="12" fill="url(#dark)"/>
  <rect x="32" y="32" width="12" height="12" fill="url(#light)"/>
  <rect x="44" y="32" width="12" height="12" fill="url(#dark)"/>
  <rect x="8" y="44" width="12" height="12" fill="url(#dark)"/>
  <rect x="20" y="44" width="12" height="12" fill="url(#light)"/>
  <rect x="32" y="44" width="12" height="12" fill="url(#dark)"/>
  <rect x="44" y="44" width="12" height="12" fill="url(#light)"/>
  <circle cx="14" cy="50" r="4" fill="#1a1a1a" stroke="#333" stroke-width="0.5"/>
  <circle cx="38" cy="14" r="4" fill="#ffffff" stroke="#ccc" stroke-width="0.5"/>
</svg>