<svg xmlns="http://www.w3.org/2000/svg" width="200" height="200" viewBox="0 0 200 200">
  <defs>
    <linearGradient id="bg" x1="0" y1="0" x2="0" y2="1">
      <stop offset="0%" stop-color="#0d1f3c"/>
      <stop offset="100%" stop-color="#0a1628"/>
    </linearGradient>
    <linearGradient id="hull" x1="0" y1="0" x2="0" y2="1">
      <stop offset="0%" stop-color="#64748b"/>
      <stop offset="100%" stop-color="#334155"/>
    </linearGradient>
    <linearGradient id="deck" x1="0" y1="0" x2="1" y2="0">
      <stop offset="0%" stop-color="#475569"/>
      <stop offset="100%" stop-color="#64748b"/>
    </linearGradient>
    <linearGradient id="water" x1="0" y1="0" x2="1" y2="0">
      <stop offset="0%" stop-color="#1e3a5f"/>
      <stop offset="50%" stop-color="#2563eb"/>
      <stop offset="100%" stop-color="#1e3a5f"/>
    </linearGradient>
  </defs>
  <circle cx="100" cy="100" r="96" fill="url(#bg)" stroke="#2563eb" stroke-width="1.5"/>
  <circle cx="100" cy="100" r="90" fill="none" stroke="#1e3a5f" stroke-width="1" stroke-dasharray="4 4"/>
  <path d="M25 140 Q55 125 85 138 Q110 148 140 138 Q165 127 185 140 L185 155 Q165 143 140 153 Q110 163 85 153 Q55 140 25 150 Z" fill="url(#water)" opacity="0.8"/>
  <path d="M48 118 L55 92 L145 92 L152 118 L170 128 L30 128 Z" fill="url(#hull)"/>
  <rect x="62" y="86" width="76" height="6" rx="2" fill="url(#deck)"/>
  <rect x="108" y="68" width="24" height="20" rx="2" fill="#64748b"/>
  <rect x="112" y="64" width="16" height="5" rx="2" fill="#94a3b8"/>
  <rect x="75" y="76" width="16" height="7" rx="2" fill="#64748b"/>
  <rect x="78" y="72" width="10" height="5" rx="2" fill="#94a3b8"/>
  <line x1="120" y1="64" x2="120" y2="38" stroke="#94a3b8" stroke-width="2"/>
  <line x1="108" y1="44" x2="132" y2="44" stroke="#94a3b8" stroke-width="1.5"/>
  <line x1="112" y1="50" x2="128" y2="50" stroke="#94a3b8" stroke-width="1"/>
</svg>
