<svg xmlns="http://www.w3.org/2000/svg" width="120" height="120" viewBox="0 0 120 120">
  <defs>
    <linearGradient id="d1" x1="0" y1="0" x2="0" y2="1">
      <stop offset="0%" stop-color="#fbbf24"/>
      <stop offset="100%" stop-color="#d97706"/>
    </linearGradient>
    <linearGradient id="d2" x1="0" y1="0" x2="0" y2="1">
      <stop offset="0%" stop-color="#f59e0b"/>
      <stop offset="100%" stop-color="#b45309"/>
    </linearGradient>
  </defs>
  <rect x="26" y="18" width="68" height="68" rx="14" fill="url(#d1)" transform="rotate(-8 60 52)"/>
  <rect x="30" y="22" width="60" height="60" rx="10" fill="#fefce8" transform="rotate(-8 60 52)"/>
  <circle cx="46" cy="38" r="5" fill="#1e293b"/>
  <circle cx="74" cy="38" r="5" fill="#1e293b"/>
  <circle cx="60" cy="52" r="5" fill="#1e293b"/>
  <circle cx="46" cy="66" r="5" fill="#1e293b"/>
  <circle cx="74" cy="66" r="5" fill="#1e293b"/>
  <rect x="38" y="72" width="44" height="30" rx="8" fill="url(#d2)" transform="rotate(6 60 87)"/>
  <rect x="42" y="76" width="36" height="22" rx="6" fill="#fefce8" transform="rotate(6 60 87)"/>
  <circle cx="58" cy="90" r="4" fill="#1e293b"/>
  <circle cx="74" cy="84" r="4" fill="#1e293b"/>
  <circle cx="50" cy="84" r="4" fill="#1e293b"/>
  <circle cx="58" cy="78" r="4" fill="#1e293b"/>
</svg>