<svg xmlns="http://www.w3.org/2000/svg" width="120" height="120" viewBox="0 0 120 120">
  <rect x="24" y="30" width="72" height="52" rx="12" fill="none" stroke="#3b82f6" stroke-width="2.5"/>
  <rect x="36" y="42" width="48" height="28" rx="6" fill="none" stroke="#3b82f6" stroke-width="1.5" opacity="0.5"/>
  <circle cx="48" cy="56" r="4" fill="#3b82f6"/>
  <circle cx="72" cy="56" r="4" fill="#3b82f6"/>
  <line x1="24" y1="36" x2="24" y2="24" stroke="#3b82f6" stroke-width="2.5" stroke-linecap="round"/>
  <line x1="96" y1="36" x2="96" y2="24" stroke="#3b82f6" stroke-width="2.5" stroke-linecap="round"/>
  <circle cx="24" cy="20" r="4" fill="#3b82f6" opacity="0.6"/>
  <circle cx="96" cy="20" r="4" fill="#3b82f6" opacity="0.6"/>
  <rect x="42" y="24" width="36" height="6" rx="3" fill="#3b82f6" opacity="0.4"/>
  <rect x="24" y="82" width="16" height="14" rx="4" fill="none" stroke="#3b82f6" stroke-width="2"/>
  <rect x="52" y="82" width="16" height="14" rx="4" fill="none" stroke="#3b82f6" stroke-width="2"/>
  <rect x="80" y="82" width="16" height="14" rx="4" fill="none" stroke="#3b82f6" stroke-width="2"/>
  <circle cx="32" cy="89" r="2.5" fill="#3b82f6" opacity="0.8"/>
  <circle cx="60" cy="89" r="2.5" fill="#3b82f6" opacity="0.8"/>
  <circle cx="88" cy="89" r="2.5" fill="#3b82f6" opacity="0.8"/>
</svg>
