<svg xmlns="http://www.w3.org/2000/svg" width="120" height="120" viewBox="0 0 120 120">
  <path d="M38 28 Q34 26 32 20 Q32 14 38 12 L82 12 Q88 14 88 20 Q88 26 82 28 L76 28 L72 100 Q72 108 60 108 Q48 108 48 100 L44 28 Z" fill="none" stroke="#f472b6" stroke-width="2.5" stroke-linejoin="round"/>
  <path d="M40 40 L80 40" stroke="#f472b6" stroke-width="1.5" opacity="0.4"/>
  <path d="M42 60 L78 60" stroke="#f472b6" stroke-width="1.5" opacity="0.3"/>
  <path d="M44 80 L76 80" stroke="#f472b6" stroke-width="1.5" opacity="0.2"/>
  <path d="M56 12 L56 20" stroke="#f472b6" stroke-width="1.5" stroke-linecap="round" opacity="0.6"/>
  <path d="M68 12 L68 24" stroke="#f472b6" stroke-width="1.5" stroke-linecap="round" opacity="0.4"/>
  <circle cx="50" cy="12" r="3" fill="#f472b6" opacity="0.3"/>
  <circle cx="74" cy="12" r="3" fill="#f472b6" opacity="0.3"/>
</svg>
