<svg xmlns="http://www.w3.org/2000/svg" width="120" height="120" viewBox="0 0 120 120">
  <defs>
    <linearGradient id="bg" x1="0" y1="0" x2="0" y2="1">
      <stop offset="0%" stop-color="#60a5fa"/>
      <stop offset="100%" stop-color="#1d4ed8"/>
    </linearGradient>
    <linearGradient id="b2" x1="0" y1="0" x2="1" y2="1">
      <stop offset="0%" stop-color="#93c5fd"/>
      <stop offset="100%" stop-color="#3b82f6"/>
    </linearGradient>
  </defs>
  <rect x="20" y="30" width="80" height="60" rx="14" fill="url(#bg)"/>
  <rect x="28" y="38" width="64" height="36" rx="8" fill="url(#b2)"/>
  <circle cx="48" cy="54" r="8" fill="#1e293b"/>
  <circle cx="72" cy="54" r="8" fill="#1e293b"/>
  <rect x="54" y="58" width="12" height="4" rx="2" fill="#1e293b"/>
  <rect x="44" y="62" width="32" height="3" rx="1.5" fill="#1e293b" opacity="0.3"/>
  <rect x="34" y="72" width="52" height="2" rx="1" fill="#1e293b" opacity="0.2"/>
  <rect x="20" y="86" width="80" height="26" rx="8" fill="url(#bg)" opacity="0.85"/>
  <rect x="28" y="92" width="12" height="14" rx="3" fill="#93c5fd"/>
  <rect x="54" y="92" width="12" height="14" rx="3" fill="#93c5fd"/>
  <rect x="80" y="92" width="12" height="14" rx="3" fill="#93c5fd"/>
  <circle cx="34" cy="12" r="10" fill="url(#bg)"/>
  <circle cx="86" cy="12" r="10" fill="url(#bg)"/>
  <rect x="34" y="16" width="8" height="20" rx="3" fill="#60a5fa"/>
  <rect x="78" y="16" width="8" height="20" rx="3" fill="#60a5fa"/>
</svg>