<svg xmlns="http://www.w3.org/2000/svg" width="120" height="120" viewBox="0 0 120 120">
  <defs>
    <linearGradient id="g" x1="0" y1="0" x2="0" y2="1">
      <stop offset="0%" stop-color="#f472b6"/>
      <stop offset="100%" stop-color="#db2777"/>
    </linearGradient>
  </defs>
  <path d="M34 26 Q60 22 86 26 L90 38 L82 36 Q60 32 38 36 Z" fill="url(#g)" opacity="0.5"/>
  <path d="M52 20 L68 20 L72 28 L48 28 Z" fill="url(#g)" rx="2"/>
  <path d="M38 36 Q42 40 48 38 L50 100 Q52 104 56 104 L64 104 Q68 104 70 100 L72 38 Q78 40 82 36 L84 48 Q86 72 84 96 Q82 108 76 112 Q68 116 60 116 Q52 116 44 112 Q38 108 36 96 Q34 72 36 48 Z" fill="url(#g)"/>
</svg>
