<svg xmlns="http://www.w3.org/2000/svg" width="64" height="64" viewBox="0 0 64 64">
  <defs>
    <linearGradient id="bg" x1="0" y1="0" x2="1" y2="1">
      <stop offset="0%" stop-color="#3B1D1D"/>
      <stop offset="100%" stop-color="#2D1515"/>
    </linearGradient>
    <linearGradient id="dice" x1="0" y1="0" x2="0" y2="1">
      <stop offset="0%" stop-color="#FEF3C7"/>
      <stop offset="100%" stop-color="#FDE68A"/>
    </linearGradient>
    <linearGradient id="pip" x1="0" y1="0" x2="1" y2="1">
      <stop offset="0%" stop-color="#991B1B"/>
      <stop offset="100%" stop-color="#7F1D1D"/>
    </linearGradient>
    <linearGradient id="table" x1="0" y1="0" x2="0" y2="1">
      <stop offset="0%" stop-color="#7F1D1D"/>
      <stop offset="100%" stop-color="#5C1111"/>
    </linearGradient>
  </defs>
  <rect x="4" y="4" width="56" height="56" rx="8" fill="url(#bg)"/>
  <rect x="6" y="28" width="52" height="24" rx="4" fill="url(#table)" stroke="#5C1111" stroke-width="1"/>
  <rect x="10" y="22" width="14" height="14" rx="2.5" fill="url(#dice)" stroke="#991B1B" stroke-width="0.8" transform="rotate(-15 17 29)"/>
  <circle cx="13" cy="25" r="1.5" fill="url(#pip)" transform="rotate(-15 17 29)"/>
  <circle cx="21" cy="33" r="1.5" fill="url(#pip)" transform="rotate(-15 17 29)"/>
  <rect x="22" y="18" width="14" height="14" rx="2.5" fill="url(#dice)" stroke="#991B1B" stroke-width="0.8" transform="rotate(10 29 25)"/>
  <circle cx="26" cy="22" r="1.5" fill="url(#pip)" transform="rotate(10 29 25)"/>
  <circle cx="32" cy="28" r="1.5" fill="url(#pip)" transform="rotate(10 29 25)"/>
  <circle cx="26" cy="28" r="1.5" fill="url(#pip)" transform="rotate(10 29 25)"/>
  <circle cx="32" cy="22" r="1.5" fill="url(#pip)" transform="rotate(10 29 25)"/>
  <circle cx="29" cy="25" r="1.5" fill="url(#pip)" transform="rotate(10 29 25)"/>
  <rect x="34" y="24" width="14" height="14" rx="2.5" fill="url(#dice)" stroke="#991B1B" stroke-width="0.8" transform="rotate(-5 41 31)"/>
  <circle cx="38" cy="28" r="1.5" fill="url(#pip)" transform="rotate(-5 41 31)"/>
  <circle cx="44" cy="34" r="1.5" fill="url(#pip)" transform="rotate(-5 41 31)"/>
  <rect x="40" y="20" width="14" height="14" rx="2.5" fill="url(#dice)" stroke="#991B1B" stroke-width="0.8" transform="rotate(20 47 27)"/>
  <circle cx="44" cy="24" r="1.5" fill="url(#pip)" transform="rotate(20 47 27)"/>
  <rect x="16" y="36" width="14" height="14" rx="2.5" fill="url(#dice)" stroke="#991B1B" stroke-width="0.8" transform="rotate(-8 23 43)"/>
  <circle cx="20" cy="40" r="1.5" fill="url(#pip)" transform="rotate(-8 23 43)"/>
  <circle cx="26" cy="46" r="1.5" fill="url(#pip)" transform="rotate(-8 23 43)"/>
  <circle cx="20" cy="46" r="1.5" fill="url(#pip)" transform="rotate(-8 23 43)"/>
  <circle cx="26" cy="40" r="1.5" fill="url(#pip)" transform="rotate(-8 23 43)"/>
</svg>
