<svg xmlns="http://www.w3.org/2000/svg" width="64" height="64" viewBox="0 0 64 64">
  <defs>
    <linearGradient id="bg" x1="0" y1="0" x2="1" y2="1">
      <stop offset="0%" stop-color="#8B5C2A"/>
      <stop offset="100%" stop-color="#6B4423"/>
    </linearGradient>
    <linearGradient id="hull" x1="0" y1="0" x2="0" y2="1">
      <stop offset="0%" stop-color="#4A2810"/>
      <stop offset="100%" stop-color="#2E1A0A"/>
    </linearGradient>
    <linearGradient id="deck" x1="0" y1="0" x2="0" y2="1">
      <stop offset="0%" stop-color="#F3E2C7"/>
      <stop offset="100%" stop-color="#D4B896"/>
    </linearGradient>
    <linearGradient id="water" x1="0" y1="0" x2="1" y2="0">
      <stop offset="0%" stop-color="#D4A96A"/>
      <stop offset="50%" stop-color="#C49A6C"/>
      <stop offset="100%" stop-color="#D4A96A"/>
    </linearGradient>
  </defs>
  <rect x="4" y="4" width="56" height="56" rx="8" fill="url(#bg)"/>
  <path d="M10 46 L12 36 L20 28 L44 28 L50 34 L52 46 Z" fill="url(#hull)"/>
  <rect x="24" y="22" width="16" height="6" rx="2" fill="url(#deck)"/>
  <rect x="34" y="14" width="6" height="8" rx="1.5" fill="url(#hull)"/>
  <rect x="35" y="11" width="4" height="5" rx="1" fill="url(#deck)"/>
  <line x1="37" y1="11" x2="37" y2="5" stroke="#D4A96A" stroke-width="1.5" opacity="0.6"/>
  <polygon points="37,5 35,9 39,9" fill="#D4A96A" opacity="0.6"/>
  <rect x="18" y="30" width="4" height="8" rx="1" fill="#2E1A0A"/>
  <rect x="24" y="30" width="4" height="8" rx="1" fill="#2E1A0A"/>
  <rect x="30" y="30" width="4" height="8" rx="1" fill="#2E1A0A"/>
  <rect x="40" y="30" width="4" height="8" rx="1" fill="#2E1A0A"/>
  <rect x="44" y="24" width="6" height="14" rx="1" fill="#2E1A0A"/>
  <path d="M8 46 Q16 50 28 48 Q40 46 50 48 Q54 50 56 46" fill="none" stroke="url(#water)" stroke-width="1.5"/>
  <circle cx="46" cy="10" r="1.5" fill="#F3E2C7" opacity="0.5"/>
  <circle cx="50" cy="14" r="1" fill="#F3E2C7" opacity="0.3"/>
</svg>
