<svg xmlns="http://www.w3.org/2000/svg" width="64" height="64" viewBox="0 0 64 64">
  <defs>
    <linearGradient id="bg" x1="0" y1="0" x2="1" y2="1">
      <stop offset="0%" stop-color="#8B5C2A"/>
      <stop offset="100%" stop-color="#6B4423"/>
    </linearGradient>
    <linearGradient id="tower" x1="0" y1="0" x2="0" y2="1">
      <stop offset="0%" stop-color="#F3E2C7"/>
      <stop offset="100%" stop-color="#D4B896"/>
    </linearGradient>
    <linearGradient id="stripe" x1="0" y1="0" x2="0" y2="1">
      <stop offset="0%" stop-color="#4A2810"/>
      <stop offset="100%" stop-color="#2E1A0A"/>
    </linearGradient>
    <linearGradient id="light" x1="0" y1="0" x2="1" y2="1">
      <stop offset="0%" stop-color="#F3E2C7"/>
      <stop offset="100%" stop-color="#E8C98E"/>
    </linearGradient>
  </defs>
  <rect x="4" y="4" width="56" height="56" rx="8" fill="url(#bg)"/>
  <polygon points="28,46 24,34 26,20 38,20 40,34 36,46" fill="url(#tower)" stroke="#4A2810" stroke-width="1"/>
  <rect x="28" y="20" width="8" height="26" fill="url(#stripe)"/>
  <rect x="32" y="20" width="4" height="26" fill="url(#tower)" opacity="0.5"/>
  <rect x="24" y="30" width="16" height="4" fill="url(#stripe)"/>
  <path d="M26 20 L38 20 L34 14 L30 14 Z" fill="url(#tower)" stroke="#4A2810" stroke-width="1"/>
  <rect x="28" y="14" width="8" height="6" fill="url(#stripe)"/>
  <rect x="26" y="14" width="4" height="3" fill="url(#light)"/>
  <rect x="34" y="14" width="4" height="3" fill="url(#light)"/>
  <line x1="32" y1="10" x2="32" y2="6" stroke="#4A2810" stroke-width="1.5"/>
  <circle cx="32" cy="6" r="2" fill="url(#light)"/>
  <line x1="14" y1="10" x2="22" y2="8" stroke="url(#light)" stroke-width="3" opacity="0.4" stroke-linecap="round"/>
  <line x1="50" y1="10" x2="42" y2="8" stroke="url(#light)" stroke-width="3" opacity="0.4" stroke-linecap="round"/>
  <line x1="8" y1="14" x2="18" y2="10" stroke="url(#light)" stroke-width="2" opacity="0.2" stroke-linecap="round"/>
  <line x1="56" y1="14" x2="46" y2="10" stroke="url(#light)" stroke-width="2" opacity="0.2" stroke-linecap="round"/>
  <rect x="22" y="46" width="20" height="4" rx="1" fill="url(#stripe)"/>
</svg>
