<svg xmlns="http://www.w3.org/2000/svg" width="64" height="64" viewBox="0 0 64 64">
  <defs>
    <linearGradient id="bg" x1="0" y1="0" x2="1" y2="1">
      <stop offset="0%" stop-color="#8B5C2A"/>
      <stop offset="100%" stop-color="#6B4423"/>
    </linearGradient>
    <linearGradient id="metal" x1="0" y1="0" x2="0" y2="1">
      <stop offset="0%" stop-color="#4A2810"/>
      <stop offset="100%" stop-color="#2E1A0A"/>
    </linearGradient>
    <linearGradient id="gold" x1="0" y1="0" x2="1" y2="1">
      <stop offset="0%" stop-color="#F3E2C7"/>
      <stop offset="100%" stop-color="#D4B896"/>
    </linearGradient>
  </defs>
  <rect x="4" y="4" width="56" height="56" rx="8" fill="url(#bg)"/>
  <circle cx="32" cy="30" r="20" fill="none" stroke="url(#gold)" stroke-width="2" opacity="0.3"/>
  <circle cx="32" cy="30" r="16" fill="none" stroke="url(#gold)" stroke-width="1.5" opacity="0.5"/>
  <line x1="32" y1="14" x2="32" y2="46" stroke="url(#metal)" stroke-width="2"/>
  <line x1="16" y1="30" x2="48" y2="30" stroke="url(#metal)" stroke-width="2"/>
  <polygon points="32,6 34,14 30,14" fill="url(#gold)" opacity="0.7"/>
  <polygon points="32,54 34,46 30,46" fill="url(#gold)" opacity="0.7"/>
  <polygon points="6,30 14,32 14,28" fill="url(#gold)" opacity="0.7"/>
  <polygon points="58,30 50,32 50,28" fill="url(#gold)" opacity="0.7"/>
  <polygon points="16,18 22,22 20,16" fill="url(#gold)" opacity="0.5"/>
  <polygon points="48,18 44,22 50,16" fill="url(#gold)" opacity="0.5"/>
  <polygon points="16,42 22,38 20,44" fill="url(#gold)" opacity="0.5"/>
  <polygon points="48,42 44,38 50,44" fill="url(#gold)" opacity="0.5"/>
  <circle cx="32" cy="30" r="4" fill="url(#metal)"/>
  <circle cx="32" cy="30" r="2" fill="url(#gold)"/>
</svg>
