<svg xmlns="http://www.w3.org/2000/svg" width="64" height="64" viewBox="0 0 64 64">
  <defs>
    <linearGradient id="bg" x1="0" y1="0" x2="1" y2="1">
      <stop offset="0%" stop-color="#8B5C2A"/>
      <stop offset="100%" stop-color="#6B4423"/>
    </linearGradient>
    <linearGradient id="hull" x1="0" y1="0" x2="0" y2="1">
      <stop offset="0%" stop-color="#4A2810"/>
      <stop offset="100%" stop-color="#2E1A0A"/>
    </linearGradient>
    <linearGradient id="fire1" x1="0" y1="0" x2="1" y2="0">
      <stop offset="0%" stop-color="#E8C98E"/>
      <stop offset="50%" stop-color="#D4A96A"/>
      <stop offset="100%" stop-color="#C49A6C"/>
    </linearGradient>
    <linearGradient id="fire2" x1="0" y1="0" x2="1" y2="0">
      <stop offset="0%" stop-color="#F3E2C7"/>
      <stop offset="50%" stop-color="#E8C98E"/>
      <stop offset="100%" stop-color="#D4A96A"/>
    </linearGradient>
    <linearGradient id="debris" x1="0" y1="0" x2="0" y2="1">
      <stop offset="0%" stop-color="#F3E2C7"/>
      <stop offset="100%" stop-color="#D4B896"/>
    </linearGradient>
  </defs>
  <rect x="4" y="4" width="56" height="56" rx="8" fill="url(#bg)"/>
  <path d="M18 44 L20 36 L38 40 L40 44 L44 48 L14 48 Z" fill="url(#hull)" transform="rotate(-12 30 42)"/>
  <rect x="38" y="30" width="12" height="6" rx="2" fill="url(#hull)" transform="rotate(10 44 33)"/>
  <rect x="22" y="28" width="6" height="8" rx="1" fill="url(#hull)" transform="rotate(-25 25 32)"/>
  <path d="M30 38 Q28 28 22 24" fill="none" stroke="url(#fire2)" stroke-width="3" stroke-linecap="round"/>
  <path d="M34 40 Q36 26 32 20" fill="none" stroke="url(#fire1)" stroke-width="3" stroke-linecap="round"/>
  <path d="M38 40 Q42 28 44 24" fill="none" stroke="url(#fire2)" stroke-width="2.5" stroke-linecap="round"/>
  <line x1="28" y1="22" x2="26" y2="16" stroke="url(#debris)" stroke-width="1.5" stroke-linecap="round"/>
  <line x1="34" y1="18" x2="36" y2="12" stroke="url(#debris)" stroke-width="1.5" stroke-linecap="round"/>
  <line x1="44" y1="22" x2="48" y2="16" stroke="url(#debris)" stroke-width="1.5" stroke-linecap="round"/>
  <circle cx="25" cy="15" r="1.5" fill="url(#debris)"/>
  <circle cx="36" cy="11" r="1.5" fill="url(#debris)"/>
  <circle cx="48" cy="15" r="1.5" fill="url(#debris)"/>
  <path d="M12 48 Q20 52 32 50 Q44 48 52 50" fill="none" stroke="#D4A96A" stroke-width="1.5" opacity="0.5"/>
</svg>
