<svg xmlns="http://www.w3.org/2000/svg" width="64" height="64" viewBox="0 0 64 64">
  <defs>
    <linearGradient id="bg" x1="0" y1="0" x2="1" y2="1">
      <stop offset="0%" stop-color="#8B5C2A"/>
      <stop offset="100%" stop-color="#6B4423"/>
    </linearGradient>
    <linearGradient id="wood" x1="0" y1="0" x2="0" y2="1">
      <stop offset="0%" stop-color="#F3E2C7"/>
      <stop offset="100%" stop-color="#D4B896"/>
    </linearGradient>
    <linearGradient id="post" x1="0" y1="0" x2="1" y2="1">
      <stop offset="0%" stop-color="#4A2810"/>
      <stop offset="100%" stop-color="#2E1A0A"/>
    </linearGradient>
    <linearGradient id="rope" x1="0" y1="0" x2="1" y2="1">
      <stop offset="0%" stop-color="#C49A6C"/>
      <stop offset="100%" stop-color="#A67B5B"/>
    </linearGradient>
    <linearGradient id="water" x1="0" y1="0" x2="1" y2="0">
      <stop offset="0%" stop-color="#D4A96A"/>
      <stop offset="100%" stop-color="#C49A6C"/>
    </linearGradient>
  </defs>
  <rect x="4" y="4" width="56" height="56" rx="8" fill="url(#bg)"/>
  <rect x="8" y="14" width="48" height="6" rx="1" fill="url(#wood)"/>
  <rect x="8" y="22" width="48" height="6" rx="1" fill="url(#wood)"/>
  <rect x="8" y="30" width="48" height="6" rx="1" fill="url(#wood)"/>
  <rect x="12" y="36" width="4" height="16" rx="1" fill="url(#post)"/>
  <rect x="48" y="36" width="4" height="16" rx="1" fill="url(#post)"/>
  <rect x="28" y="36" width="4" height="16" rx="1" fill="url(#post)"/>
  <rect x="14" y="28" width="6" height="4" rx="1" fill="url(#post)"/>
  <rect x="44" y="28" width="6" height="4" rx="1" fill="url(#post)"/>
  <rect x="30" y="8" width="4" height="6" fill="url(#post)"/>
  <line x1="30" y1="8" x2="18" y2="14" stroke="url(#rope)" stroke-width="1.5"/>
</svg>
