<svg xmlns="http://www.w3.org/2000/svg" width="64" height="64" viewBox="0 0 64 64">
  <defs>
    <linearGradient id="bg" x1="0" y1="0" x2="1" y2="1">
      <stop offset="0%" stop-color="#8B5C2A"/>
      <stop offset="100%" stop-color="#6B4423"/>
    </linearGradient>
    <linearGradient id="screen" x1="0" y1="0" x2="0" y2="1">
      <stop offset="0%" stop-color="#F3E2C7"/>
      <stop offset="100%" stop-color="#D4B896"/>
    </linearGradient>
    <linearGradient id="beam" x1="0" y1="0" x2="1" y2="1">
      <stop offset="0%" stop-color="#4A2810"/>
      <stop offset="100%" stop-color="#2E1A0A"/>
    </linearGradient>
  </defs>
  <rect x="4" y="4" width="56" height="56" rx="8" fill="url(#bg)"/>
  <circle cx="32" cy="34" r="20" fill="none" stroke="url(#screen)" stroke-width="2"/>
  <circle cx="32" cy="34" r="14" fill="none" stroke="url(#screen)" stroke-width="1" opacity="0.5"/>
  <circle cx="32" cy="34" r="8" fill="none" stroke="url(#screen)" stroke-width="1" opacity="0.5"/>
  <circle cx="32" cy="34" r="2" fill="url(#screen)" opacity="0.8"/>
  <line x1="32" y1="34" x2="48" y2="22" stroke="url(#beam)" stroke-width="1.5" opacity="0.6"/>
  <line x1="32" y1="34" x2="48" y2="22" stroke="url(#beam)" stroke-width="1" opacity="0.3" transform="rotate(20 32 34)"/>
  <line x1="32" y1="34" x2="48" y2="22" stroke="url(#beam)" stroke-width="1" opacity="0.3" transform="rotate(-20 32 34)"/>
  <circle cx="40" cy="26" r="2.5" fill="none" stroke="#4A2810" stroke-width="1.5" opacity="0.7"/>
  <circle cx="22" cy="40" r="2" fill="none" stroke="#4A2810" stroke-width="1.5" opacity="0.5"/>
  <circle cx="44" cy="40" r="1.5" fill="none" stroke="#4A2810" stroke-width="1.5" opacity="0.4"/>
  <rect x="28" y="8" width="8" height="6" rx="2" fill="url(#screen)"/>
  <line x1="32" y1="12" x2="32" y2="14" stroke="#4A2810" stroke-width="1.5"/>
</svg>
