<svg xmlns="http://www.w3.org/2000/svg" width="64" height="64" viewBox="0 0 64 64">
  <defs>
    <linearGradient id="bg" x1="0" y1="0" x2="1" y2="1">
      <stop offset="0%" stop-color="#8B5C2A"/>
      <stop offset="100%" stop-color="#6B4423"/>
    </linearGradient>
    <linearGradient id="metal" x1="0" y1="0" x2="0" y2="1">
      <stop offset="0%" stop-color="#4A2810"/>
      <stop offset="100%" stop-color="#2E1A0A"/>
    </linearGradient>
    <linearGradient id="mine" x1="0" y1="0" x2="0" y2="1">
      <stop offset="0%" stop-color="#F3E2C7"/>
      <stop offset="100%" stop-color="#D4B896"/>
    </linearGradient>
  </defs>
  <rect x="4" y="4" width="56" height="56" rx="8" fill="url(#bg)"/>
  <circle cx="32" cy="34" r="14" fill="url(#mine)" stroke="#4A2810" stroke-width="1.5"/>
  <circle cx="32" cy="34" r="8" fill="none" stroke="#4A2810" stroke-width="1"/>
  <circle cx="32" cy="34" r="3" fill="#4A2810"/>
  <line x1="18" y1="34" x2="12" y2="30" stroke="url(#metal)" stroke-width="2" stroke-linecap="round"/>
  <line x1="18" y1="34" x2="12" y2="38" stroke="url(#metal)" stroke-width="2" stroke-linecap="round"/>
  <line x1="46" y1="34" x2="52" y2="30" stroke="url(#metal)" stroke-width="2" stroke-linecap="round"/>
  <line x1="46" y1="34" x2="52" y2="38" stroke="url(#metal)" stroke-width="2" stroke-linecap="round"/>
  <line x1="32" y1="20" x2="32" y2="14" stroke="url(#metal)" stroke-width="2" stroke-linecap="round"/>
  <line x1="32" y1="48" x2="32" y2="54" stroke="url(#metal)" stroke-width="2" stroke-linecap="round"/>
  <line x1="24" y1="24" x2="20" y2="20" stroke="url(#metal)" stroke-width="2" stroke-linecap="round"/>
  <line x1="40" y1="24" x2="44" y2="20" stroke="url(#metal)" stroke-width="2" stroke-linecap="round"/>
  <line x1="24" y1="44" x2="20" y2="48" stroke="url(#metal)" stroke-width="2" stroke-linecap="round"/>
  <line x1="40" y1="44" x2="44" y2="48" stroke="url(#metal)" stroke-width="2" stroke-linecap="round"/>
</svg>
