<svg xmlns="http://www.w3.org/2000/svg" width="64" height="64" viewBox="0 0 64 64">
  <defs>
    <linearGradient id="bg" x1="0" y1="0" x2="1" y2="1">
      <stop offset="0%" stop-color="#8B5C2A"/>
      <stop offset="100%" stop-color="#6B4423"/>
    </linearGradient>
    <linearGradient id="ball" x1="0" y1="0" x2="1" y2="1">
      <stop offset="0%" stop-color="#4A2810"/>
      <stop offset="100%" stop-color="#2E1A0A"/>
    </linearGradient>
    <linearGradient id="ballLight" x1="0" y1="0" x2="1" y2="1">
      <stop offset="0%" stop-color="#F3E2C7"/>
      <stop offset="100%" stop-color="#D4B896"/>
    </linearGradient>
  </defs>
  <rect x="4" y="4" width="56" height="56" rx="8" fill="url(#bg)"/>
  <circle cx="22" cy="44" r="8" fill="url(#ball)" stroke="#1A0A05" stroke-width="0.8"/>
  <circle cx="19" cy="41" r="2" fill="url(#ballLight)" opacity="0.3"/>
  <circle cx="42" cy="44" r="8" fill="url(#ball)" stroke="#1A0A05" stroke-width="0.8"/>
  <circle cx="39" cy="41" r="2" fill="url(#ballLight)" opacity="0.3"/>
  <circle cx="32" cy="36" r="8" fill="url(#ball)" stroke="#1A0A05" stroke-width="0.8"/>
  <circle cx="29" cy="33" r="2" fill="url(#ballLight)" opacity="0.3"/>
  <circle cx="16" cy="36" r="8" fill="url(#ball)" stroke="#1A0A05" stroke-width="0.8"/>
  <circle cx="13" cy="33" r="2" fill="url(#ballLight)" opacity="0.3"/>
  <circle cx="48" cy="36" r="8" fill="url(#ball)" stroke="#1A0A05" stroke-width="0.8"/>
  <circle cx="45" cy="33" r="2" fill="url(#ballLight)" opacity="0.3"/>
  <circle cx="32" cy="26" r="8" fill="url(#ball)" stroke="#1A0A05" stroke-width="0.8"/>
  <circle cx="29" cy="23" r="2" fill="url(#ballLight)" opacity="0.3"/>
  <circle cx="24" cy="28" r="8" fill="url(#ball)" stroke="#1A0A05" stroke-width="0.8"/>
  <circle cx="21" cy="25" r="2" fill="url(#ballLight)" opacity="0.3"/>
  <circle cx="40" cy="28" r="8" fill="url(#ball)" stroke="#1A0A05" stroke-width="0.8"/>
  <circle cx="37" cy="25" r="2" fill="url(#ballLight)" opacity="0.3"/>
</svg>
