<svg xmlns="http://www.w3.org/2000/svg" width="64" height="64" viewBox="0 0 64 64">
  <defs>
    <linearGradient id="bg" x1="0" y1="0" x2="1" y2="1">
      <stop offset="0%" stop-color="#8B5C2A"/>
      <stop offset="100%" stop-color="#6B4423"/>
    </linearGradient>
    <linearGradient id="metal" x1="0" y1="0" x2="0" y2="1">
      <stop offset="0%" stop-color="#4A2810"/>
      <stop offset="100%" stop-color="#2E1A0A"/>
    </linearGradient>
    <linearGradient id="flash" x1="0" y1="0" x2="1" y2="1">
      <stop offset="0%" stop-color="#F3E2C7"/>
      <stop offset="100%" stop-color="#D4A96A"/>
    </linearGradient>
  </defs>
  <rect x="4" y="4" width="56" height="56" rx="8" fill="url(#bg)"/>
  <rect x="14" y="18" width="36" height="8" rx="3" fill="url(#metal)" transform="rotate(30 32 22)"/>
  <rect x="14" y="18" width="36" height="8" rx="3" fill="url(#metal)" transform="rotate(-30 32 22)"/>
  <line x1="32" y1="16" x2="32" y2="50" stroke="url(#metal)" stroke-width="3"/>
  <circle cx="32" cy="46" r="4" fill="url(#metal)"/>
  <circle cx="32" cy="46" r="2" fill="url(#flash)"/>
  <line x1="24" y1="14" x2="18" y2="8" stroke="url(#flash)" stroke-width="2" stroke-linecap="round"/>
  <line x1="40" y1="14" x2="46" y2="8" stroke="url(#flash)" stroke-width="2" stroke-linecap="round"/>
  <line x1="32" y1="12" x2="32" y2="6" stroke="url(#flash)" stroke-width="2" stroke-linecap="round"/>
  <circle cx="17" cy="30" r="2" fill="url(#flash)" opacity="0.6"/>
  <circle cx="47" cy="30" r="2" fill="url(#flash)" opacity="0.6"/>
  <circle cx="20" cy="20" r="1.5" fill="url(#flash)" opacity="0.4"/>
  <circle cx="44" cy="20" r="1.5" fill="url(#flash)" opacity="0.4"/>
</svg>
