<svg xmlns="http://www.w3.org/2000/svg" width="64" height="64" viewBox="0 0 64 64">
  <defs>
    <linearGradient id="bg" x1="0" y1="0" x2="1" y2="1">
      <stop offset="0%" stop-color="#8B5C2A"/>
      <stop offset="100%" stop-color="#6B4423"/>
    </linearGradient>
    <linearGradient id="metal" x1="0" y1="0" x2="0" y2="1">
      <stop offset="0%" stop-color="#4A2810"/>
      <stop offset="100%" stop-color="#2E1A0A"/>
    </linearGradient>
    <linearGradient id="lens" x1="0" y1="0" x2="1" y2="1">
      <stop offset="0%" stop-color="#F3E2C7"/>
      <stop offset="100%" stop-color="#D4B896"/>
    </linearGradient>
    <linearGradient id="water" x1="0" y1="0" x2="1" y2="0">
      <stop offset="0%" stop-color="#D4A96A"/>
      <stop offset="50%" stop-color="#C49A6C"/>
      <stop offset="100%" stop-color="#D4A96A"/>
    </linearGradient>
  </defs>
  <rect x="4" y="4" width="56" height="56" rx="8" fill="url(#bg)"/>
  <line x1="28" y1="50" x2="28" y2="18" stroke="url(#metal)" stroke-width="2.5"/>
  <line x1="28" y1="18" x2="28" y2="12" stroke="url(#metal)" stroke-width="1.5"/>
  <rect x="24" y="10" width="8" height="8" rx="3" fill="url(#lens)"/>
  <line x1="24" y1="14" x2="21" y2="14" stroke="url(#metal)" stroke-width="1.5"/>
  <line x1="32" y1="14" x2="35" y2="14" stroke="url(#metal)" stroke-width="1.5"/>
  <rect x="22" y="26" width="8" height="3" rx="1" fill="url(#metal)"/>
  <rect x="22" y="34" width="8" height="3" rx="1" fill="url(#metal)"/>
  <rect x="24" y="18" width="3" height="36" rx="1" fill="url(#metal)"/>
  <path d="M18 46 Q22 42 28 46 Q34 50 38 46" fill="none" stroke="url(#water)" stroke-width="2.5"/>
  <path d="M16 50 Q24 46 32 50 Q40 54 48 50" fill="none" stroke="url(#water)" stroke-width="1.5"/>
  <circle cx="28" cy="14" r="2" fill="#4A2810"/>
  <line x1="40" y1="14" x2="46" y2="10" stroke="url(#metal)" stroke-width="1"/>
  <line x1="40" y1="16" x2="46" y2="18" stroke="url(#metal)" stroke-width="1"/>
</svg>
