<svg xmlns="http://www.w3.org/2000/svg" width="64" height="64" viewBox="0 0 64 64">
  <defs>
    <linearGradient id="bg" x1="0" y1="0" x2="1" y2="1">
      <stop offset="0%" stop-color="#8B5C2A"/>
      <stop offset="100%" stop-color="#6B4423"/>
    </linearGradient>
    <linearGradient id="hull" x1="0" y1="0" x2="0" y2="1">
      <stop offset="0%" stop-color="#4A2810"/>
      <stop offset="100%" stop-color="#2E1A0A"/>
    </linearGradient>
    <linearGradient id="sail" x1="0" y1="0" x2="1" y2="1">
      <stop offset="0%" stop-color="#F3E2C7"/>
      <stop offset="100%" stop-color="#D4B896"/>
    </linearGradient>
    <linearGradient id="water" x1="0" y1="0" x2="1" y2="0">
      <stop offset="0%" stop-color="#D4A96A"/>
      <stop offset="50%" stop-color="#C49A6C"/>
      <stop offset="100%" stop-color="#D4A96A"/>
    </linearGradient>
  </defs>
  <rect x="4" y="4" width="56" height="56" rx="8" fill="url(#bg)"/>
  <path d="M10 44 L14 36 L36 36 L40 44 L44 48 L6 48 Z" fill="url(#hull)"/>
  <path d="M36 44 L38 40 L52 40 L54 44 L56 48 L34 48 Z" fill="url(#hull)"/>
  <line x1="14" y1="36" x2="14" y2="18" stroke="url(#hull)" stroke-width="2"/>
  <polygon points="16,18 16,34 28,26" fill="url(#sail)"/>
  <line x1="38" y1="40" x2="38" y2="24" stroke="url(#hull)" stroke-width="2"/>
  <polygon points="40,24 40,38 50,31" fill="url(#sail)"/>
  <path d="M6 48 Q12 52 24 48 Q36 44 44 48 Q50 52 56 48" fill="none" stroke="url(#water)" stroke-width="2"/>
</svg>
