<svg xmlns="http://www.w3.org/2000/svg" width="64" height="64" viewBox="0 0 64 64">
  <defs>
    <linearGradient id="bg" x1="0" y1="0" x2="1" y2="1">
      <stop offset="0%" stop-color="#8B5C2A"/>
      <stop offset="100%" stop-color="#6B4423"/>
    </linearGradient>
    <linearGradient id="metal" x1="0" y1="0" x2="0" y2="1">
      <stop offset="0%" stop-color="#4A2810"/>
      <stop offset="100%" stop-color="#2E1A0A"/>
    </linearGradient>
    <linearGradient id="lens" x1="0" y1="0" x2="1" y2="1">
      <stop offset="0%" stop-color="#F3E2C7"/>
      <stop offset="100%" stop-color="#D4B896"/>
    </linearGradient>
    <linearGradient id="glass" x1="0" y1="0" x2="1" y2="1">
      <stop offset="0%" stop-color="#E8C98E"/>
      <stop offset="100%" stop-color="#D4A96A"/>
    </linearGradient>
  </defs>
  <rect x="4" y="4" width="56" height="56" rx="8" fill="url(#bg)"/>
  <rect x="8" y="20" width="18" height="28" rx="5" fill="url(#metal)"/>
  <rect x="10" y="24" width="14" height="14" rx="3" fill="url(#lens)"/>
  <circle cx="17" cy="31" r="5" fill="url(#glass)" stroke="#4A2810" stroke-width="0.8"/>
  <line x1="17" y1="26" x2="17" y2="36" stroke="#4A2810" stroke-width="0.5" opacity="0.3"/>
  <line x1="12" y1="31" x2="22" y2="31" stroke="#4A2810" stroke-width="0.5" opacity="0.3"/>
  <rect x="38" y="20" width="18" height="28" rx="5" fill="url(#metal)"/>
  <rect x="40" y="24" width="14" height="14" rx="3" fill="url(#lens)"/>
  <circle cx="47" cy="31" r="5" fill="url(#glass)" stroke="#4A2810" stroke-width="0.8"/>
  <line x1="47" y1="26" x2="47" y2="36" stroke="#4A2810" stroke-width="0.5" opacity="0.3"/>
  <line x1="42" y1="31" x2="52" y2="31" stroke="#4A2810" stroke-width="0.5" opacity="0.3"/>
  <line x1="24" y1="26" x2="38" y2="22" stroke="url(#metal)" stroke-width="2.5"/>
  <line x1="24" y1="30" x2="38" y2="30" stroke="url(#metal)" stroke-width="2.5"/>
  <line x1="24" y1="44" x2="38" y2="48" stroke="url(#metal)" stroke-width="2.5"/>
</svg>
