<svg xmlns="http://www.w3.org/2000/svg" width="64" height="64" viewBox="0 0 64 64">
  <defs>
    <linearGradient id="bg" x1="0" y1="0" x2="1" y2="1">
      <stop offset="0%" stop-color="#8B5C2A"/>
      <stop offset="100%" stop-color="#6B4423"/>
    </linearGradient>
    <linearGradient id="metal" x1="0" y1="0" x2="0" y2="1">
      <stop offset="0%" stop-color="#4A2810"/>
      <stop offset="100%" stop-color="#2E1A0A"/>
    </linearGradient>
    <linearGradient id="window" x1="0" y1="0" x2="1" y2="1">
      <stop offset="0%" stop-color="#F3E2C7"/>
      <stop offset="100%" stop-color="#D4B896"/>
    </linearGradient>
    <linearGradient id="water" x1="0" y1="0" x2="1" y2="0">
      <stop offset="0%" stop-color="#D4A96A"/>
      <stop offset="50%" stop-color="#C49A6C"/>
      <stop offset="100%" stop-color="#D4A96A"/>
    </linearGradient>
  </defs>
  <rect x="4" y="4" width="56" height="56" rx="8" fill="url(#bg)"/>
  <ellipse cx="32" cy="38" rx="22" ry="7" fill="url(#metal)"/>
  <ellipse cx="32" cy="32" rx="12" ry="5" fill="url(#metal)"/>
  <circle cx="28" cy="32" r="2.5" fill="url(#window)"/>
  <circle cx="36" cy="32" r="2.5" fill="url(#window)"/>
  <ellipse cx="12" cy="38" rx="4" ry="4" fill="url(#metal)"/>
  <rect x="14" y="28" width="3" height="8" rx="1" fill="url(#metal)"/>
  <polygon points="20,36 16,32 20,32" fill="url(#metal)"/>
  <polygon points="20,40 16,44 20,44" fill="url(#metal)"/>
  <rect x="48" y="36" width="6" height="4" rx="1" fill="url(#metal)"/>
  <rect x="50" y="34" width="2" height="8" rx="1" fill="url(#metal)"/>
  <path d="M8 46 Q16 50 28 48 Q40 46 52 48 Q56 50 58 46" fill="none" stroke="url(#water)" stroke-width="1.5"/>
  <circle cx="40" cy="14" r="1.5" fill="#F3E2C7" opacity="0.5"/>
  <circle cx="44" cy="18" r="1" fill="#F3E2C7" opacity="0.3"/>
</svg>
