<svg xmlns="http://www.w3.org/2000/svg" width="64" height="64" viewBox="0 0 64 64">
  <defs>
    <linearGradient id="bg" x1="0" y1="0" x2="1" y2="1">
      <stop offset="0%" stop-color="#134E4A"/>
      <stop offset="100%" stop-color="#0D3D39"/>
    </linearGradient>
    <linearGradient id="hull" x1="0" y1="0" x2="0" y2="1">
      <stop offset="0%" stop-color="#2DD4BF"/>
      <stop offset="100%" stop-color="#14B8A6"/>
    </linearGradient>
    <linearGradient id="crosshair" x1="0" y1="0" x2="1" y2="1">
      <stop offset="0%" stop-color="#FDE68A"/>
      <stop offset="100%" stop-color="#F59E0B"/>
    </linearGradient>
  </defs>
  <rect x="4" y="4" width="56" height="56" rx="8" fill="url(#bg)"/>
  <circle cx="32" cy="30" r="22" fill="none" stroke="url(#crosshair)" stroke-width="2" opacity="0.3"/>
  <circle cx="32" cy="30" r="16" fill="none" stroke="url(#crosshair)" stroke-width="1.5" opacity="0.5"/>
  <circle cx="32" cy="30" r="8" fill="none" stroke="url(#crosshair)" stroke-width="1"/>
  <line x1="12" y1="30" x2="22" y2="30" stroke="url(#crosshair)" stroke-width="2"/>
  <line x1="42" y1="30" x2="52" y2="30" stroke="url(#crosshair)" stroke-width="2"/>
  <line x1="32" y1="10" x2="32" y2="20" stroke="url(#crosshair)" stroke-width="2"/>
  <line x1="32" y1="40" x2="32" y2="50" stroke="url(#crosshair)" stroke-width="2"/>
  <path d="M20 42 L22 36 L42 36 L44 42 L48 46 L16 46 Z" fill="url(#hull)"/>
  <rect x="26" y="30" width="12" height="6" rx="2" fill="#0D3D39"/>
  <rect x="30" y="24" width="4" height="6" fill="#0D3D39"/>
  <circle cx="32" cy="30" r="2" fill="#FCA5A5" opacity="0.8"/>
</svg>
