<svg xmlns="http://www.w3.org/2000/svg" width="120" height="120" viewBox="0 0 120 120">
  <path d="M44 36 Q44 24 60 24 Q76 24 76 36" fill="none" stroke="#ec4899" stroke-width="2.5" stroke-linecap="round"/>
  <path d="M44 36 L44 44" stroke="#ec4899" stroke-width="2.5" stroke-linecap="round"/>
  <path d="M76 36 L76 44" stroke="#ec4899" stroke-width="2.5" stroke-linecap="round"/>
  <path d="M34 44 L86 44" stroke="#ec4899" stroke-width="2" stroke-linecap="round"/>
  <path d="M34 44 L28 82 Q26 90 34 92 L50 94" fill="none" stroke="#ec4899" stroke-width="2" stroke-linecap="round" stroke-linejoin="round"/>
  <path d="M86 44 L92 82 Q94 90 86 92 L70 94" fill="none" stroke="#ec4899" stroke-width="2" stroke-linecap="round" stroke-linejoin="round"/>
  <path d="M50 94 L60 96 L70 94" fill="none" stroke="#ec4899" stroke-width="2" stroke-linecap="round" stroke-linejoin="round"/>
  <path d="M48 56 Q60 48 72 56" fill="none" stroke="#ec4899" stroke-width="1.8" opacity="0.5" stroke-linecap="round"/>
  <path d="M44 68 Q60 62 76 68" fill="none" stroke="#ec4899" stroke-width="1.8" opacity="0.3" stroke-linecap="round"/>
</svg>
